<svg width="24" height="25" viewBox="0 0 24 25" fill="none" xmlns="http://www.w3.org/2000/svg">
<path d="M13 9.5C13 10.0523 12.5523 10.5 12 10.5V12.5C13.6569 12.5 15 11.1569 15 9.5H13ZM12 10.5C11.4477 10.5 11 10.0523 11 9.5H9C9 11.1569 10.3431 12.5 12 12.5V10.5ZM11 9.5C11 8.94772 11.4477 8.5 12 8.5V6.5C10.3431 6.5 9 7.84315 9 9.5H11ZM12 8.5C12.5523 8.5 13 8.94772 13 9.5H15C15 7.84315 13.6569 6.5 12 6.5V8.5Z" fill="#4f46e5"/>
<path d="M12 21.5L11.4308 22.3222C11.7732 22.5593 12.2268 22.5593 12.5692 22.3222L12 21.5ZM7.05025 5.52772L6.34706 4.81672L6.34706 4.81672L7.05025 5.52772ZM16.9497 5.52772L17.6529 4.81672L17.6529 4.81672L16.9497 5.52772ZM18 10.4231C18 13.1745 16.4421 15.7121 14.749 17.6378C13.9151 18.5862 13.0786 19.3518 12.4503 19.88C12.1368 20.1435 11.877 20.3464 11.6978 20.4819C11.6082 20.5496 11.5389 20.6003 11.4933 20.6333C11.4704 20.6498 11.4535 20.6618 11.443 20.6692C11.4377 20.673 11.434 20.6756 11.432 20.677C11.4309 20.6777 11.4303 20.6781 11.4301 20.6783C11.43 20.6783 11.43 20.6783 11.4301 20.6783C11.4302 20.6782 11.4304 20.6781 11.4304 20.6781C11.4306 20.678 11.4308 20.6778 12 21.5C12.5692 22.3222 12.5695 22.322 12.5698 22.3218C12.5699 22.3217 12.5702 22.3215 12.5705 22.3213C12.571 22.3209 12.5717 22.3205 12.5724 22.32C12.5739 22.3189 12.5758 22.3176 12.5782 22.3159C12.5829 22.3127 12.5892 22.3082 12.5972 22.3026C12.6131 22.2913 12.6355 22.2754 12.664 22.2548C12.7209 22.2138 12.8019 22.1543 12.9038 22.0773C13.1074 21.9235 13.3945 21.6991 13.7372 21.4109C14.4214 20.8357 15.3349 20.0004 16.251 18.9584C18.0579 16.9033 20 13.9024 20 10.4231H18ZM12 21.5C12.5692 20.6778 12.5694 20.678 12.5696 20.6781C12.5696 20.6781 12.5698 20.6782 12.5699 20.6783C12.57 20.6783 12.57 20.6783 12.5699 20.6783C12.5697 20.6781 12.5691 20.6777 12.568 20.677C12.566 20.6756 12.5623 20.673 12.557 20.6692C12.5465 20.6618 12.5296 20.6498 12.5067 20.6333C12.4611 20.6003 12.3918 20.5496 12.3022 20.4819C12.123 20.3464 11.8632 20.1435 11.5497 19.88C10.9214 19.3518 10.0849 18.5862 9.251 17.6378C7.55792 15.7121 6 13.1745 6 10.4231H4C4 13.9024 5.94208 16.9033 7.749 18.9584C8.66513 20.0004 9.57861 20.8357 10.2628 21.4109C10.6055 21.6991 10.8926 21.9235 11.0962 22.0773C11.1981 22.1543 11.2791 22.2138 11.336 22.2548C11.3645 22.2754 11.3869 22.2913 11.4028 22.3026C11.4108 22.3082 11.4171 22.3127 11.4218 22.3159C11.4242 22.3176 11.4261 22.3189 11.4276 22.32C11.4283 22.3205 11.429 22.3209 11.4295 22.3213C11.4298 22.3215 11.4301 22.3217 11.4302 22.3218C11.4305 22.322 11.4308 22.3222 12 21.5ZM6 10.4231C6 8.85577 6.62943 7.35039 7.75344 6.23872L6.34706 4.81672C4.84557 6.30171 4 8.31816 4 10.4231H6ZM7.75344 6.23872C8.87783 5.12669 10.4052 4.5 12 4.5V2.5C9.88181 2.5 7.84818 3.3321 6.34706 4.81672L7.75344 6.23872ZM12 4.5C13.5948 4.5 15.1222 5.12669 16.2466 6.23872L17.6529 4.81672C16.1518 3.3321 14.1182 2.5 12 2.5V4.5ZM16.2466 6.23872C17.3706 7.35039 18 8.85577 18 10.4231H20C20 8.31816 19.1544 6.30171 17.6529 4.81672L16.2466 6.23872Z" fill="#4f46e5"/>
</svg>
