<svg width="1512" height="776" viewBox="0 0 1512 776" fill="none" xmlns="http://www.w3.org/2000/svg">
<g clip-path="url(#clip0_199_1255)">
<g clip-path="url(#clip1_199_1255)">
<path d="M1.68578e-05 619.5C86.2801 619.5 156.223 689.344 156.223 775.499C156.223 861.655 86.2801 931.5 3.04957e-05 931.5C-86.28 931.5 -156.223 861.655 -156.223 775.5C-156.223 689.344 -86.2801 619.5 1.68578e-05 619.5Z" stroke="#949EA9"/>
<path d="M-0.000212884 697.363C43.3923 697.363 78.5689 732.539 78.5689 775.93C78.5689 819.321 43.3923 854.496 -0.000206016 854.496C-43.3928 854.496 -78.5693 819.321 -78.5693 775.93C-78.5693 732.539 -43.3928 697.363 -0.000212884 697.363Z" stroke="#949EA9"/>
<path d="M7.10521e-05 541.25C129.558 541.25 234.584 646.128 234.584 775.5C234.584 904.872 129.558 1009.75 9.15309e-05 1009.75C-129.558 1009.75 -234.584 904.872 -234.584 775.5C-234.584 646.128 -129.558 541.25 7.10521e-05 541.25Z" stroke="#A2ABB4"/>
<path d="M3.36937e-05 463C172.836 463 312.945 602.912 312.945 775.5C312.945 948.088 172.836 1088 6.10133e-05 1088C-172.836 1088 -312.945 948.088 -312.945 775.5C-312.945 602.912 -172.836 463 3.36937e-05 463Z" stroke="#B0B7BF"/>
<path d="M5.73704e-05 384.75C216.113 384.75 391.307 559.695 391.307 775.5C391.307 991.305 216.114 1166.25 9.15309e-05 1166.25C-216.113 1166.25 -391.307 991.305 -391.307 775.5C-391.307 559.695 -216.113 384.75 5.73704e-05 384.75Z" stroke="#BEC4CA"/>
<path d="M7.42063e-05 228.25C302.669 228.25 548.03 473.263 548.03 775.5C548.03 1077.74 302.669 1322.75 0.000122048 1322.75C-302.669 1322.75 -548.029 1077.74 -548.029 775.5C-548.029 473.263 -302.669 228.25 7.42063e-05 228.25Z" stroke="#DBDEE1"/>
<path d="M6.73655e-05 150C345.947 150 626.391 430.047 626.391 775.5C626.391 1120.95 345.947 1401 0.000122048 1401C-345.947 1401 -626.391 1120.95 -626.391 775.5C-626.391 430.047 -345.947 150 6.73655e-05 150Z" stroke="#E9EAED"/>
<path d="M-0.000366721 71.75C389.224 71.75 704.752 386.83 704.752 775.5C704.752 1164.17 389.224 1479.25 -0.000305198 1479.25C-389.225 1479.25 -704.752 1164.17 -704.752 775.5C-704.752 386.83 -389.225 71.75 -0.000366721 71.75Z" stroke="#F6F8F8"/>
<path d="M-6.15456e-05 72.2021C389.229 72.2021 704.76 387.282 704.76 775.952C704.76 1164.62 389.229 1479.7 -2.18557e-08 1479.7C-389.229 1479.7 -704.76 1164.62 -704.76 775.952C-704.76 387.282 -389.229 72.2021 -6.15456e-05 72.2021Z" stroke="#F6F8F8"/>
<path d="M0.000142082 306.5C259.391 306.5 469.668 516.479 469.668 775.5C469.668 1034.52 259.391 1244.5 0.000183084 1244.5C-259.391 1244.5 -469.668 1034.52 -469.668 775.5C-469.668 516.479 -259.391 306.5 0.000142082 306.5Z" stroke="#CCD1D6"/>
</g>
<g clip-path="url(#clip2_199_1255)">
<path d="M1514 -156.5C1427.72 -156.5 1357.78 -86.6562 1357.78 -0.500502C1357.78 85.6553 1427.72 155.5 1514 155.5C1600.28 155.5 1670.22 85.6553 1670.22 -0.500488C1670.22 -86.6562 1600.28 -156.5 1514 -156.5Z" stroke="#949EA9"/>
<path d="M1514 -78.6368C1470.61 -78.6368 1435.43 -43.4614 1435.43 -0.0703575C1435.43 43.3207 1470.61 78.4961 1514 78.4961C1557.39 78.4961 1592.57 43.3207 1592.57 -0.0703507C1592.57 -43.4614 1557.39 -78.6368 1514 -78.6368Z" stroke="#949EA9"/>
<path d="M1514 -234.75C1384.44 -234.75 1279.42 -129.872 1279.42 -0.500051C1279.42 128.872 1384.44 233.75 1514 233.75C1643.56 233.75 1748.58 128.872 1748.58 -0.500031C1748.58 -129.872 1643.56 -234.75 1514 -234.75Z" stroke="#A2ABB4"/>
<path d="M1514 -313C1341.16 -313 1201.05 -173.088 1201.05 -0.500027C1201.05 172.088 1341.16 312 1514 312C1686.84 312 1826.95 172.088 1826.95 -0.5C1826.95 -173.088 1686.84 -313 1514 -313Z" stroke="#B0B7BF"/>
<path d="M1514 -391.25C1297.89 -391.25 1122.69 -216.305 1122.69 -0.500034C1122.69 215.305 1297.89 390.25 1514 390.25C1730.11 390.25 1905.31 215.305 1905.31 -0.5C1905.31 -216.305 1730.11 -391.25 1514 -391.25Z" stroke="#BEC4CA"/>
<path d="M1514 -547.75C1211.33 -547.75 965.971 -302.737 965.971 -0.500048C965.971 301.737 1211.33 546.75 1514 546.75C1816.67 546.75 2062.03 301.737 2062.03 -0.5C2062.03 -302.737 1816.67 -547.75 1514 -547.75Z" stroke="#DBDEE1"/>
<path d="M1514 -626C1168.05 -626 887.609 -345.953 887.609 -0.500055C887.609 344.953 1168.05 625 1514 625C1859.95 625 2140.39 344.953 2140.39 -0.5C2140.39 -345.953 1859.95 -626 1514 -626Z" stroke="#E9EAED"/>
<path d="M1514 -704.25C1124.78 -704.25 809.248 -389.17 809.248 -0.500062C809.248 388.17 1124.78 703.25 1514 703.25C1903.22 703.25 2218.75 388.17 2218.75 -0.5C2218.75 -389.17 1903.22 -704.25 1514 -704.25Z" stroke="#F6F8F8"/>
<path d="M1514 -703.798C1124.77 -703.798 809.24 -388.718 809.24 -0.0479132C809.24 388.622 1124.77 703.702 1514 703.702C1903.23 703.702 2218.76 388.622 2218.76 -0.0478516C2218.76 -388.718 1903.23 -703.798 1514 -703.798Z" stroke="#F6F8F8"/>
<path d="M1514 -469.5C1254.61 -469.5 1044.33 -259.521 1044.33 -0.500102C1044.33 258.521 1254.61 468.5 1514 468.5C1773.39 468.5 1983.67 258.521 1983.67 -0.500061C1983.67 -259.521 1773.39 -469.5 1514 -469.5Z" stroke="#CCD1D6"/>
</g>
</g>
<defs>
<clipPath id="clip0_199_1255">
<rect width="1512" height="776" fill="white"/>
</clipPath>
<clipPath id="clip1_199_1255">
<rect width="1565" height="746" fill="white" transform="translate(0 1558) rotate(-90)"/>
</clipPath>
<clipPath id="clip2_199_1255">
<rect width="1565" height="746" fill="white" transform="matrix(4.37114e-08 -1 -1 -4.37114e-08 1514 782)"/>
</clipPath>
</defs>
</svg>
