<svg width="24" height="25" viewBox="0 0 24 25" fill="none" xmlns="http://www.w3.org/2000/svg">
<path d="M6 20.5C6 21.0523 6.44772 21.5 7 21.5C7.55228 21.5 8 21.0523 8 20.5H6ZM16 20.5C16 21.0523 16.4477 21.5 17 21.5C17.5523 21.5 18 21.0523 18 20.5H16ZM8 20.5C8 20.1608 8.23436 19.6829 8.97896 19.2362C9.70366 18.8014 10.7694 18.5 12 18.5V16.5C10.4692 16.5 9.03492 16.8702 7.94997 17.5212C6.88493 18.1602 6 19.1823 6 20.5H8ZM12 18.5C13.2306 18.5 14.2963 18.8014 15.021 19.2362C15.7656 19.6829 16 20.1608 16 20.5H18C18 19.1823 17.1151 18.1602 16.05 17.5212C14.9651 16.8702 13.5308 16.5 12 16.5V18.5Z" fill="#4f46e5"/>
<path d="M18.2536 13.7822C17.7193 13.6421 17.1727 13.9617 17.0327 14.4959C16.8926 15.0302 17.2122 15.5768 17.7464 15.7168L18.2536 13.7822ZM20 17.4999C20 18.0522 20.4477 18.4999 21 18.4999C21.5523 18.4999 22 18.0522 22 17.4999H20ZM17.7464 15.7168C18.5139 15.918 19.1094 16.2351 19.4935 16.5805C19.875 16.9235 20 17.2434 20 17.4999H22C22 16.5262 21.508 15.7023 20.8309 15.0934C20.1565 14.487 19.252 14.0439 18.2536 13.7822L17.7464 15.7168Z" fill="#4f46e5"/>
<path d="M6.25358 15.7168C6.78782 15.5768 7.10736 15.0302 6.96731 14.4959C6.82726 13.9617 6.28065 13.6421 5.74642 13.7822L6.25358 15.7168ZM2 17.4999C2 18.0522 2.44772 18.4999 3 18.4999C3.55228 18.4999 4 18.0522 4 17.4999H2ZM5.74642 13.7822C4.74799 14.0439 3.8435 14.487 3.16912 15.0934C2.49202 15.7023 2 16.5262 2 17.4999H4C4 17.2434 4.12503 16.9235 4.50645 16.5805C4.8906 16.2351 5.48611 15.918 6.25358 15.7168L5.74642 13.7822Z" fill="#4f46e5"/>
<path d="M14 11.5C14 12.6046 13.1046 13.5 12 13.5V15.5C14.2091 15.5 16 13.7091 16 11.5H14ZM12 13.5C10.8954 13.5 10 12.6046 10 11.5H8C8 13.7091 9.79086 15.5 12 15.5V13.5ZM10 11.5C10 10.3954 10.8954 9.5 12 9.5V7.5C9.79086 7.5 8 9.29086 8 11.5H10ZM12 9.5C13.1046 9.5 14 10.3954 14 11.5H16C16 9.29086 14.2091 7.5 12 7.5V9.5Z" fill="#4f46e5"/>
<path d="M17.3331 9.99097C16.9216 10.3593 16.8865 10.9915 17.2549 11.403C17.6232 11.8145 18.2554 11.8496 18.6669 11.4812L17.3331 9.99097ZM13.3331 5.51876C12.9216 5.88708 12.8865 6.51928 13.2549 6.93081C13.6232 7.34233 14.2554 7.37735 14.6669 7.00903L13.3331 5.51876ZM16 6.5C17.1046 6.5 18 7.39543 18 8.5H20C20 6.29086 18.2091 4.5 16 4.5V6.5ZM18 8.5C18 9.09224 17.7439 9.62333 17.3331 9.99097L18.6669 11.4812C19.4836 10.7502 20 9.68476 20 8.5H18ZM14.6669 7.00903C15.0214 6.69174 15.4871 6.5 16 6.5V4.5C14.9762 4.5 14.0401 4.88597 13.3331 5.51876L14.6669 7.00903Z" fill="#4f46e5"/>
<path d="M5.33309 11.4812C5.74461 11.8496 6.37681 11.8145 6.74513 11.403C7.11346 10.9915 7.07844 10.3593 6.66691 9.99097L5.33309 11.4812ZM9.33309 7.00903C9.74461 7.37735 10.3768 7.34233 10.7451 6.93081C11.1135 6.51928 11.0784 5.88708 10.6669 5.51876L9.33309 7.00903ZM8 4.5C5.79086 4.5 4 6.29086 4 8.5H6C6 7.39543 6.89543 6.5 8 6.5V4.5ZM4 8.5C4 9.68476 4.51635 10.7502 5.33309 11.4812L6.66691 9.99097C6.25615 9.62333 6 9.09224 6 8.5H4ZM10.6669 5.51876C9.9599 4.88597 9.02383 4.5 8 4.5V6.5C8.51288 6.5 8.97858 6.69174 9.33309 7.00903L10.6669 5.51876Z" fill="#4f46e5"/>
</svg>
