<svg width="24" height="25" viewBox="0 0 24 25" fill="none" xmlns="http://www.w3.org/2000/svg">
<path d="M20.4851 9.67143L19.778 8.96432L19.778 8.96432L20.4851 9.67143ZM9.17143 20.9851L9.87853 21.6922L9.87853 21.6922L9.17143 20.9851ZM7.75721 20.9851L7.05011 21.6922L7.05011 21.6922L7.75721 20.9851ZM3.51457 16.7425L4.22168 16.0354L4.22168 16.0354L3.51457 16.7425ZM3.51457 15.3283L4.22168 16.0354L4.22168 16.0354L3.51457 15.3283ZM14.8283 4.01457L14.1212 3.30747L14.1212 3.30747L14.8283 4.01457ZM16.2425 4.01457L16.9496 3.30747L16.9496 3.30747L16.2425 4.01457ZM20.4851 8.25721L19.778 8.96432L19.778 8.96432L20.4851 8.25721ZM19.778 8.96432L8.46432 20.278L9.87853 21.6922L21.1922 10.3785L19.778 8.96432ZM8.46432 20.278L4.22168 16.0354L2.80747 17.4496L7.05011 21.6922L8.46432 20.278ZM4.22168 16.0354L15.5354 4.72168L14.1212 3.30747L2.80747 14.6212L4.22168 16.0354ZM15.5354 4.72168L19.778 8.96432L21.1922 7.55011L16.9496 3.30747L15.5354 4.72168ZM15.5354 4.72168L15.5354 4.72168L16.9496 3.30747C16.1686 2.52642 14.9022 2.52642 14.1212 3.30747L15.5354 4.72168ZM4.22168 16.0354L4.22168 16.0354L2.80747 14.6212C2.02642 15.4022 2.02642 16.6686 2.80747 17.4496L4.22168 16.0354ZM8.46432 20.278L8.46432 20.278L7.05011 21.6922C7.83115 22.4733 9.09748 22.4733 9.87853 21.6922L8.46432 20.278ZM21.1922 10.3785C21.9733 9.59748 21.9733 8.33115 21.1922 7.55011L19.778 8.96432L19.778 8.96432L21.1922 10.3785Z" fill="#4f46e5"/>
<path d="M7.05037 11.7929C6.65984 11.4024 6.02668 11.4024 5.63615 11.7929C5.24563 12.1834 5.24563 12.8166 5.63615 13.2071L7.05037 11.7929ZM7.75748 15.3284C8.148 15.719 8.78116 15.719 9.17169 15.3284C9.56221 14.9379 9.56221 14.3047 9.17169 13.9142L7.75748 15.3284ZM5.63615 13.2071L7.75748 15.3284L9.17169 13.9142L7.05037 11.7929L5.63615 13.2071Z" fill="#4f46e5"/>
<path d="M9.87849 8.96428C9.48797 8.57376 8.8548 8.57376 8.46428 8.96428C8.07376 9.3548 8.07376 9.98797 8.46428 10.3785L9.87849 8.96428ZM10.5856 12.4998C10.9761 12.8903 11.6093 12.8903 11.9998 12.4998C12.3903 12.1093 12.3903 11.4761 11.9998 11.0856L10.5856 12.4998ZM8.46428 10.3785L10.5856 12.4998L11.9998 11.0856L9.87849 8.96428L8.46428 10.3785Z" fill="#4f46e5"/>
<path d="M12.7071 6.13615C12.3166 5.74563 11.6834 5.74563 11.2929 6.13615C10.9024 6.52668 10.9024 7.15984 11.2929 7.55037L12.7071 6.13615ZM13.4142 9.67169C13.8047 10.0622 14.4379 10.0622 14.8284 9.67169C15.219 9.28116 15.219 8.648 14.8284 8.25748L13.4142 9.67169ZM11.2929 7.55037L13.4142 9.67169L14.8284 8.25748L12.7071 6.13615L11.2929 7.55037Z" fill="#4f46e5"/>
</svg>
