<svg width="40" height="39" viewBox="0 0 40 39" fill="none" xmlns="http://www.w3.org/2000/svg">
<path d="M27.9688 24.0938L27.2188 27.25C27.125 27.7188 26.75 28.0312 26.2812 28.0312C18.4062 28 12 21.5938 12 13.7188C12 13.25 12.2812 12.875 12.75 12.7812L15.9062 12.0312C16.3438 11.9375 16.8125 12.1875 17 12.5938L18.4688 16C18.625 16.4062 18.5312 16.875 18.1875 17.125L16.5 18.5C17.5625 20.6562 19.3125 22.4062 21.5 23.4688L22.875 21.7812C23.125 21.4688 23.5938 21.3438 24 21.5L27.4062 22.9688C27.8125 23.1875 28.0625 23.6562 27.9688 24.0938Z" fill="#C9CDD4"/>
</svg>
