<svg width="24" height="25" viewBox="0 0 24 25" fill="none" xmlns="http://www.w3.org/2000/svg">
<path d="M5 5.5H19V3.5H5V5.5ZM19 5.5V19.5H21V5.5H19ZM19 19.5H5V21.5H19V19.5ZM5 19.5V5.5H3V19.5H5ZM5 19.5H3C3 20.6046 3.89543 21.5 5 21.5V19.5ZM19 19.5V21.5C20.1046 21.5 21 20.6046 21 19.5H19ZM19 5.5H21C21 4.39543 20.1046 3.5 19 3.5V5.5ZM5 3.5C3.89543 3.5 3 4.39543 3 5.5H5V3.5Z" fill="#ffff"/>
<path d="M16 16.5H16.002V16.502H16V16.5Z" stroke="#ffff" stroke-width="2" stroke-linecap="round" stroke-linejoin="round"/>
<path d="M12 16.5H12.002V16.502H12V16.5Z" stroke="#ffff" stroke-width="2" stroke-linecap="round" stroke-linejoin="round"/>
<path d="M8 16.5H8.002V16.502H8V16.5Z" stroke="#ffff" stroke-width="2" stroke-linecap="round" stroke-linejoin="round"/>
<path d="M16 12.5V11.5C15.4477 11.5 15 11.9477 15 12.5H16ZM16.002 12.5H17.002C17.002 11.9477 16.5543 11.5 16.002 11.5V12.5ZM16.002 12.502V13.502C16.5543 13.502 17.002 13.0543 17.002 12.502H16.002ZM16 12.502H15C15 13.0543 15.4477 13.502 16 13.502V12.502ZM16 13.5H16.002V11.5H16V13.5ZM15.002 12.5V12.502H17.002V12.5H15.002ZM16.002 11.502H16V13.502H16.002V11.502ZM17 12.502V12.5H15V12.502H17Z" fill="#ffff"/>
<path d="M12 12.5H12.002V12.502H12V12.5Z" stroke="#ffff" stroke-width="2" stroke-linecap="round" stroke-linejoin="round"/>
<path d="M8 12.5H8.002V12.502H8V12.5Z" stroke="#ffff" stroke-width="2" stroke-linecap="round" stroke-linejoin="round"/>
<path d="M4 7.5C3.44772 7.5 3 7.94772 3 8.5C3 9.05228 3.44772 9.5 4 9.5V7.5ZM20 9.5C20.5523 9.5 21 9.05228 21 8.5C21 7.94772 20.5523 7.5 20 7.5V9.5ZM4 9.5H20V7.5H4V9.5Z" fill="#ffff"/>
<path d="M17 2.5C17 1.94772 16.5523 1.5 16 1.5C15.4477 1.5 15 1.94772 15 2.5H17ZM15 4.5C15 5.05228 15.4477 5.5 16 5.5C16.5523 5.5 17 5.05228 17 4.5H15ZM15 2.5V4.5H17V2.5H15Z" fill="#ffff"/>
<path d="M9 2.5C9 1.94772 8.55228 1.5 8 1.5C7.44772 1.5 7 1.94772 7 2.5H9ZM7 4.5C7 5.05228 7.44772 5.5 8 5.5C8.55228 5.5 9 5.05228 9 4.5H7ZM7 2.5V4.5H9V2.5H7Z" fill="#ffff"/>
</svg>
